<svg width="70" height="39" viewBox="0 0 70 39" fill="none" xmlns="http://www.w3.org/2000/svg">
    <path fill-rule="evenodd" clip-rule="evenodd" d="M57.9238 10.9615C57.9238 7.47899 63.0972 7.47899 63.0972 10.9615C63.0972 16.8473 63.0972 22.7087 63.0972 28.5946C63.0972 32.077 57.9238 32.077 57.9238 28.5946C57.9238 22.7087 57.9238 16.8473 57.9238 10.9615Z" fill="#2EBBA6"/>
    <path fill-rule="evenodd" clip-rule="evenodd" d="M31.153 31.1942C29.0596 31.1942 28.1934 30.066 28.1934 28.1776V10.9615C28.1934 7.47899 33.3667 7.47899 33.3667 10.9615V25.9459C38.901 25.9459 44.4113 25.9459 49.9455 25.9459V23.1501C49.9455 21.0165 48.4056 19.03 46.1919 19.03C43.4006 19.03 41.4997 19.03 38.6845 19.03C35.2676 19.03 35.2676 13.7573 38.6845 13.7573C41.7885 13.7573 43.9781 13.7573 47.0581 13.7573C51.654 13.7573 55.0708 17.534 55.0708 22.1201V28.5946C55.0708 29.9434 54.0842 31.1942 52.8571 31.1942H52.1111C45.1091 31.1942 38.107 31.1942 31.1289 31.1942H31.153Z" fill="#2EBBA6"/>
    <path d="M41.791 39.0003C43.4521 39.0003 44.7987 37.6278 44.7987 35.9347C44.7987 34.2416 43.4521 32.8691 41.791 32.8691C40.1298 32.8691 38.7832 34.2416 38.7832 35.9347C38.7832 37.6278 40.1298 39.0003 41.791 39.0003Z" fill="#FF1744"/>
    <path d="M48.9238 39.0003C50.5849 39.0003 51.9315 37.6278 51.9315 35.9347C51.9315 34.2416 50.5849 32.8691 48.9238 32.8691C47.2626 32.8691 45.916 34.2416 45.916 35.9347C45.916 37.6278 47.2626 39.0003 48.9238 39.0003Z" fill="#FF1744"/>
    <path d="M34.4121 39.0003C36.0732 39.0003 37.4198 37.6278 37.4198 35.9347C37.4198 34.2416 36.0732 32.8691 34.4121 32.8691C32.7509 32.8691 31.4043 34.2416 31.4043 35.9347C31.4043 37.6278 32.7509 39.0003 34.4121 39.0003Z" fill="#FF1744"/>
    <path fill-rule="evenodd" clip-rule="evenodd" d="M19.781 16.7011V29.0124L18.3133 30.582C15.6905 33.3532 19.6126 37.081 22.2835 34.3833L24.9303 31.661C25.2913 31.2687 25.4357 30.8272 25.4357 30.4593V16.7256C25.4357 12.7772 19.8051 12.9734 19.8051 16.7256L19.781 16.7011Z" fill="#2EBBA6"/>
    <path fill-rule="evenodd" clip-rule="evenodd" d="M67.7888 0C70.941 0.613112 70.7244 5.78778 67.1392 5.78778H54.9637L53.4237 7.3083C50.7047 10.006 46.9751 5.95945 49.6701 3.23723L52.365 0.515014C52.75 0.147147 53.2072 0 53.5441 0H67.7648H67.7888Z" fill="#2EBBA6"/>
    <path fill-rule="evenodd" clip-rule="evenodd" d="M0 21.949V28.3008C0 29.9685 1.01061 31.1947 2.69496 31.1947C7.17053 31.1947 9.86549 31.1947 14.3411 31.1947C15.881 31.1947 16.9879 29.7968 16.9879 28.3008V16.5781C16.9879 14.7143 15.6163 13.7578 14.2448 13.7578H8.46988C8.44582 13.7578 8.44582 13.7578 8.42176 13.7578C5.65461 13.9295 0 15.0821 0 21.949ZM5.46211 25.922V22.3414C5.46211 20.2568 7.53146 19.0306 9.38425 19.0306C10.6836 19.0306 10.1783 19.0306 11.4777 19.0306V25.922H5.43805H5.46211Z" fill="#2EBBA6"/>
</svg>
